<svg xmlns="http://www.w3.org/2000/svg" viewBox="0 0 1200 700" role="img" aria-labelledby="t d"><title id="t">Toàn cảnh hệ thống suất ăn bệnh viện</title><desc id="d">Luồng từ khoa điều trị qua dinh dưỡng, bếp, bàn giao và khoa xác nhận dưới sự giám sát của điều hành.</desc><defs><marker id="a" markerWidth="10" markerHeight="10" refX="8" refY="3" orient="auto"><path d="M0 0L9 3 0 6Z" fill="#2f80b7"/></marker></defs><rect width="1200" height="700" fill="#f4f8fb"/><rect x="390" y="70" width="420" height="92" rx="18" fill="#153b5b"/><text x="600" y="108" text-anchor="middle" font-family="Arial" font-size="18" fill="#bfe1f5">ADMIN · ĐIỀU HÀNH</text><text x="600" y="136" text-anchor="middle" font-family="Arial" font-size="15" fill="#fff">GIÁM SÁT TOÀN BỘ LUỒNG</text><path d="M600 162V238" stroke="#2f80b7" stroke-width="5" marker-end="url(#a)"/><g font-family="Arial" text-anchor="middle"><g><rect x="45" y="275" width="190" height="150" rx="20" fill="#fff" stroke="#b9d1df" stroke-width="3"/><circle cx="140" cy="322" r="26" fill="#dceefa"/><text x="140" y="328" font-size="21" fill="#153b5b">01</text><text x="140" y="372" font-size="18" font-weight="700" fill="#153b5b">KHOA ĐIỀU TRỊ</text><text x="140" y="399" font-size="14" fill="#607584">Báo suất</text></g><g><rect x="275" y="275" width="190" height="150" rx="20" fill="#fff" stroke="#b9d1df" stroke-width="3"/><circle cx="370" cy="322" r="26" fill="#dceefa"/><text x="370" y="328" font-size="21" fill="#153b5b">02</text><text x="370" y="372" font-size="18" font-weight="700" fill="#153b5b">DINH DƯỠNG</text><text x="370" y="399" font-size="14" fill="#607584">Lên thực đơn</text></g><g><rect x="505" y="275" width="190" height="150" rx="20" fill="#fff" stroke="#b9d1df" stroke-width="3"/><circle cx="600" cy="322" r="26" fill="#dceefa"/><text x="600" y="328" font-size="21" fill="#153b5b">03</text><text x="600" y="372" font-size="18" font-weight="700" fill="#153b5b">BẾP</text><text x="600" y="399" font-size="14" fill="#607584">Chuẩn bị</text></g><g><rect x="735" y="275" width="190" height="150" rx="20" fill="#fff" stroke="#b9d1df" stroke-width="3"/><circle cx="830" cy="322" r="26" fill="#dceefa"/><text x="830" y="328" font-size="21" fill="#153b5b">04</text><text x="830" y="372" font-size="18" font-weight="700" fill="#153b5b">BÀN GIAO</text><text x="830" y="399" font-size="14" fill="#607584">Theo khoa</text></g><g><rect x="965" y="275" width="190" height="150" rx="20" fill="#fff" stroke="#b9d1df" stroke-width="3"/><circle cx="1060" cy="322" r="26" fill="#dceefa"/><text x="1060" y="328" font-size="21" fill="#153b5b">05</text><text x="1060" y="372" font-size="18" font-weight="700" fill="#153b5b">XÁC NHẬN</text><text x="1060" y="399" font-size="14" fill="#607584">Đủ hoặc thiếu</text></g></g><g stroke="#2f80b7" stroke-width="5" marker-end="url(#a)"><path d="M235 350H267"/><path d="M465 350H497"/><path d="M695 350H727"/><path d="M925 350H957"/></g><rect x="280" y="515" width="640" height="74" rx="37" fill="#e5f1f8"/><text x="600" y="560" text-anchor="middle" font-family="Arial" font-size="20" font-weight="700" fill="#153b5b">MỘT NGUỒN DỮ LIỆU THỐNG NHẤT</text></svg>
